<svg width="16" height="15" viewBox="0 0 16 15" fill="none" xmlns="http://www.w3.org/2000/svg">
<path d="M15.5241 5.36169L10.6214 4.65623L8.42393 0.246943C8.2598 -0.0823142 7.68634 -0.0823142 7.52221 0.246943L5.32537 4.65623L0.4227 5.36169C0.33218 5.37479 0.247242 5.41113 0.177212 5.46673C0.107182 5.52232 0.0547678 5.59502 0.0257246 5.67684C-0.00331848 5.75865 -0.00786755 5.84643 0.0125769 5.93052C0.0330214 6.01462 0.0776687 6.09178 0.141617 6.15353L3.70333 9.59258L2.86141 14.4544C2.84638 14.5414 2.85762 14.6306 2.89385 14.7118C2.93008 14.793 2.98984 14.863 3.06629 14.9137C3.14275 14.9644 3.23281 14.9939 3.32619 14.9987C3.41957 15.0035 3.5125 14.9834 3.59435 14.9408L7.9734 12.661L12.3525 14.9414C12.4343 14.984 12.5272 15.0041 12.6206 14.9993C12.714 14.9945 12.8041 14.9651 12.8805 14.9143C12.957 14.8636 13.0167 14.7936 13.053 14.7124C13.0892 14.6312 13.1004 14.542 13.0854 14.4551L12.2435 9.5932L15.8052 6.15416C15.8693 6.09242 15.9141 6.01521 15.9347 5.93103C15.9552 5.84685 15.9507 5.75895 15.9217 5.67702C15.8926 5.59509 15.8401 5.52231 15.77 5.46667C15.6998 5.41103 15.6148 5.37471 15.5241 5.36169Z" fill="#C7C7C7"/>
</svg>
